# xmcd
#
# Track frame offsets: 
#        182
#        13922
#        21190
#        28502
#        33572
#        41987
#
# Disc length: 643 seconds
#
# Revision: 1
# Processed by: cddbd v1.5.2PL0 Copyright (c) Steve Scherf et al.
# Submitted via: ExactAudioCopyFreeDBPlugin 1.0
#
DISCID=49028106
DTITLE=Nicole Ray - Nicole (Bonus Dsic)
DYEAR=2000
DGENRE=R&B
TTITLE0=Clipse - Got Caught Part 2 (We Get Money)
TTITLE1=Flipmode Squad - Everything
TTITLE2=Yo Yo - Do You Wanna Ride Featuring Kelly Price
TTITLE3=Missy "Misdemeanor" Elliott - Get Contact
TTITLE4=Coko - He Be Back
TTITLE5=En Vogue - No Fool No More
EXTD=
EXTT0=
EXTT1=
EXTT2=
EXTT3=
EXTT4=
EXTT5=
PLAYORDER=
